# xmcd
#
# Track frame offsets:
# 150
# 22482
# 40422
# 62382
# 85190
# 98060
# 113970
# 131100
# 146082
# 164495
# 176682
# 194207
# 213520
# 224205
# 242817
# 256335
# 278755
# 294282
# 307027
# 320052
#
# Disc length: 4451 seconds
#
#
# Revision: 9
# Processed by: cddbd v1.5.2PL0 Copyright (c) Steve Scherf et al.
# Submitted via: FreeRIP 2.90 
#
DISCID=4a116114
DTITLE=Zé Ramalho - 20 Super Sucessos - Zé Ramalho
DYEAR=1999
DGENRE=pop
TTITLE0=Avohai
TTITLE1=Décimas de um Cantador
TTITLE2=Admirável Gado Novo
TTITLE3=Orquídea Negra
TTITLE4=Filhos de Ícaro
TTITLE5=Visionária
TTITLE6=Beira Mar
TTITLE7=Pelo Vinho e Pelo Pão
TTITLE8=Um Índio
TTITLE9=Mulher Nova, Bonita e Carinhosa Faz o Homem Gemer Sem Sentir Dor
TTITLE10=Vila do Sossêgo
TTITLE11=A Terceira Lâmina
TTITLE12=Bicho de 7 Cabeças
TTITLE13=A Peleja do Diabo Com o Dono do Céu
TTITLE14=Kamikaze
TTITLE15=Canção Agalopada
TTITLE16=Acredite Quem Quiser
TTITLE17=Filhos de Câncer
TTITLE18=Hino de Duran - Deixa Isso Pra Lá
TTITLE19=Paisagem da Flor Desesperada
EXTD=YEAR: 1999
EXTT0=
EXTT1=
EXTT2=
EXTT3=
EXTT4=
EXTT5=
EXTT6=
EXTT7=
EXTT8=
EXTT9=
EXTT10=
EXTT11=
EXTT12=
EXTT13=
EXTT14=
EXTT15=
EXTT16=
EXTT17=
EXTT18=
EXTT19=
PLAYORDER=
